<svg width="29" height="30" viewBox="0 0 29 30" fill="none" xmlns="http://www.w3.org/2000/svg">
<path d="M16.5904 26.25C16.378 26.6288 16.0731 26.9433 15.7062 27.1619C15.3393 27.3805 14.9234 27.4956 14.5 27.4956C14.0766 27.4956 13.6607 27.3805 13.2938 27.1619C12.9269 26.9433 12.622 26.6288 12.4096 26.25M21.75 10C21.75 8.01088 20.9862 6.10322 19.6265 4.6967C18.2669 3.29018 16.4228 2.5 14.5 2.5C12.5772 2.5 10.7331 3.29018 9.37348 4.6967C8.01384 6.10322 7.25 8.01088 7.25 10C7.25 18.75 3.625 21.25 3.625 21.25H25.375C25.375 21.25 21.75 18.75 21.75 10Z" stroke="#0A1B2D" stroke-width="4" stroke-linecap="round" stroke-linejoin="round"/>
</svg>
