<svg width="24" height="24" viewBox="0 0 24 24" fill="none" xmlns="http://www.w3.org/2000/svg">
<path d="M15.7726 12.9749L14.6496 11.8518C14.8201 10.9621 14.5861 10.2031 13.9477 9.57492C13.3092 8.94672 12.5432 8.70569 11.6496 8.85184L10.5265 7.72879C10.7586 7.62109 10.9974 7.54353 11.2429 7.49609C11.4884 7.44866 11.7406 7.42494 11.9996 7.42494C13.1342 7.42494 14.0973 7.82078 14.889 8.61244C15.6807 9.40411 16.0765 10.3672 16.0765 11.5018C16.0765 11.7608 16.0544 12.0131 16.0101 12.2586C15.9659 12.5041 15.8867 12.7428 15.7726 12.9749ZM18.9534 16.0864L17.8496 15.0518C18.4829 14.5685 19.0496 14.031 19.5496 13.4393C20.0496 12.8477 20.4663 12.2018 20.7996 11.5018C19.9663 9.81851 18.7621 8.48101 17.1871 7.48934C15.6121 6.49768 13.8829 6.00184 11.9996 6.00184C11.5163 6.00184 11.0454 6.03518 10.5871 6.10184C10.1288 6.16851 9.66625 6.26851 9.19959 6.40184L8.03424 5.23649C8.67012 4.98521 9.31851 4.79995 9.97941 4.68072C10.6403 4.56149 11.3137 4.50187 11.9996 4.50187C14.1483 4.50187 16.122 5.0602 17.9207 6.17687C19.7194 7.29353 21.1028 8.80443 22.0707 10.7095C22.1374 10.8365 22.1858 10.9643 22.2159 11.0932C22.246 11.222 22.2611 11.3583 22.2611 11.5018C22.2611 11.6454 22.2486 11.7816 22.2236 11.9105C22.1986 12.0393 22.1528 12.1672 22.0861 12.2941C21.7322 13.0467 21.288 13.7416 20.7534 14.3787C20.2188 15.0159 19.6188 15.5852 18.9534 16.0864ZM11.9996 18.5018C9.89447 18.5018 7.96499 17.9393 6.21116 16.8143C4.45731 15.6893 3.06308 14.2076 2.02846 12.3691C1.94513 12.2422 1.88424 12.1044 1.84579 11.9557C1.80732 11.807 1.78809 11.6557 1.78809 11.5018C1.78809 11.348 1.80475 11.1993 1.83809 11.0557C1.87142 10.9121 1.92975 10.7717 2.01309 10.6345C2.38489 9.95506 2.80604 9.30794 3.27656 8.69319C3.74708 8.07844 4.2881 7.52748 4.89964 7.04032L2.64194 4.76722C2.50347 4.6185 2.4352 4.4419 2.43714 4.23742C2.43905 4.03293 2.51244 3.85826 2.65731 3.71339C2.80218 3.56853 2.97782 3.49609 3.18424 3.49609C3.39064 3.49609 3.56627 3.56853 3.71114 3.71339L20.288 20.2903C20.4265 20.4287 20.4999 20.6002 20.5082 20.8047C20.5165 21.0092 20.4432 21.189 20.288 21.3441C20.1432 21.489 19.9675 21.5614 19.7611 21.5614C19.5547 21.5614 19.3791 21.489 19.2342 21.3441L15.715 17.8556C15.1252 18.0839 14.5191 18.2486 13.8967 18.3499C13.2743 18.4512 12.6419 18.5018 11.9996 18.5018ZM5.95346 8.09412C5.36756 8.54668 4.84095 9.05855 4.37364 9.62972C3.90632 10.2009 3.51497 10.8249 3.19959 11.5018C4.03292 13.1852 5.23709 14.5227 6.81209 15.5143C8.38709 16.506 10.1163 17.0018 11.9996 17.0018C12.4291 17.0018 12.8519 16.973 13.2679 16.9153C13.6839 16.8576 14.0971 16.7685 14.5073 16.648L13.2419 15.3518C13.0393 15.4403 12.8371 15.5002 12.6352 15.5316C12.4332 15.563 12.2214 15.5787 11.9996 15.5787C10.865 15.5787 9.90185 15.1829 9.11019 14.3912C8.31852 13.5996 7.92269 12.6364 7.92269 11.5018C7.92269 11.28 7.93999 11.0682 7.97461 10.8663C8.00923 10.6643 8.06756 10.4621 8.14961 10.2595L5.95346 8.09412Z" fill="#9FA6B2"/>
</svg>
