<svg width="6" height="20" viewBox="0 0 6 20" fill="none" xmlns="http://www.w3.org/2000/svg">
<path d="M0.96875 10C0.96875 11.1218 1.87817 12.0312 3 12.0312C4.12183 12.0312 5.03125 11.1218 5.03125 10C5.03125 8.87817 4.12183 7.96875 3 7.96875C1.87817 7.96875 0.96875 8.87817 0.96875 10Z" fill="#1E293B"/>
<path d="M0.968749 17.0312C0.968749 18.1531 1.87817 19.0625 3 19.0625C4.12183 19.0625 5.03125 18.1531 5.03125 17.0312C5.03125 15.9094 4.12183 15 3 15C1.87817 15 0.968749 15.9094 0.968749 17.0312Z" fill="#1E293B"/>
<path d="M0.96875 2.96875C0.96875 4.09058 1.87817 5 3 5C4.12183 5 5.03125 4.09058 5.03125 2.96875C5.03125 1.84692 4.12183 0.9375 3 0.9375C1.87817 0.9375 0.96875 1.84692 0.96875 2.96875Z" fill="#1E293B"/>
</svg>
