<svg width="130" height="41" viewBox="0 0 130 41" fill="none" xmlns="http://www.w3.org/2000/svg">
<path d="M17.4959 0.122417C17.3933 0.201252 16.8415 0.496868 16.2769 0.785912C15.7123 1.08153 15.2247 1.33773 15.1862 1.36401C15.1541 1.39685 14.6601 1.65962 14.0955 1.96181C13.5309 2.26399 12.3761 2.8815 11.5292 3.34135C10.6823 3.8012 9.6173 4.37272 9.15536 4.60264C8.69984 4.83913 7.81446 5.31212 7.19854 5.65372C6.58262 6.00189 5.62667 6.51429 5.08132 6.80334C2.7203 8.05806 2.31611 8.27485 1.64886 8.6493C1.26391 8.86608 0.769897 9.14856 0.564591 9.27995C0.35287 9.41133 0.147564 9.51644 0.115485 9.51644C0.0641581 9.51644 0.0449107 12.3806 0.0449107 19.0221C0.0449107 24.2578 0.0384949 29.1256 0.0256632 29.8417L0 31.149L0.378533 31.3C0.744234 31.438 3.6121 32.9358 5.49835 33.9737C6.03086 34.2628 6.70452 34.6307 7.00607 34.7949C7.30761 34.9591 7.81446 35.235 8.12883 35.3993C9.07837 35.9051 9.983 36.3978 13.4219 38.2963C13.8646 38.5459 15.013 39.1503 15.9818 39.643L17.7397 40.543L18.5481 40.116C20.5948 39.0386 23.7128 37.3503 25.4194 36.3846C26.5422 35.754 28.005 34.9591 29.8784 33.954C30.2313 33.7635 30.5521 33.5861 30.5842 33.5599C30.7959 33.3956 35.0175 31.2212 35.2356 31.1621L35.396 31.1227L35.3896 21.0257C35.3832 15.4747 35.364 10.6266 35.3511 10.2522L35.319 9.57556L34.8314 9.35877C34.5684 9.24053 34.177 9.04345 33.9717 8.92521C33.5739 8.68871 33.2467 8.51134 31.739 7.7099C30.8729 7.25005 29.1535 6.29094 27.4725 5.34497C27.1389 5.15446 26.0546 4.55666 25.0666 4.01141C23.1611 2.9669 21.493 2.04064 20.6204 1.54138C20.3317 1.37715 19.6516 1.01584 19.1127 0.739929C18.5802 0.46402 18.0605 0.181545 17.9643 0.115852C17.7526 -0.0418091 17.7333 -0.0418129 17.4959 0.122417ZM18.0926 1.85013C18.2209 1.93553 19.3437 2.55961 20.5755 3.24281C21.8138 3.91944 23.283 4.73403 23.8476 5.04935C24.4122 5.36468 25.3938 5.90335 26.0289 6.25153C27.7933 7.19749 28.6466 7.67705 29.5576 8.22887C30.0196 8.51134 30.6932 8.88579 31.0654 9.06973C31.4375 9.25367 31.7775 9.43104 31.8224 9.47045C31.9251 9.55585 31.7775 9.65439 30.6163 10.285C30.1736 10.5215 29.6154 10.8369 29.378 10.9748C29.1406 11.1193 28.4285 11.5069 27.8061 11.8419C27.1838 12.177 26.0803 12.7748 25.3553 13.1624C24.6303 13.55 23.5524 14.128 22.9494 14.4434C22.3527 14.7587 21.2812 15.3236 20.5755 15.6981C19.8698 16.0725 18.9523 16.5521 18.5417 16.7689L17.7975 17.1565L17.0083 16.782C16.572 16.5718 16.0973 16.3353 15.9561 16.2499C15.815 16.1711 14.6601 15.5667 13.3898 14.9098C10.8684 13.6156 7.84012 11.993 6.26825 11.1062C5.91538 10.9025 5.14548 10.4953 4.56164 10.1996C3.97139 9.90402 3.47095 9.62155 3.44529 9.58213C3.37472 9.47045 3.56078 9.33907 4.47182 8.8398C4.89527 8.60331 5.77423 8.12376 6.42864 7.76245C8.01977 6.88217 8.83457 6.44203 10.0215 5.82452C10.5668 5.53548 11.3752 5.10191 11.8179 4.85228C12.2606 4.60921 13.2679 4.06396 14.0635 3.63697C14.859 3.20996 15.8406 2.67786 16.2448 2.46107C16.649 2.24429 17.1302 1.98809 17.3034 1.88955C17.7141 1.67276 17.7975 1.66619 18.0926 1.85013ZM2.05948 10.6529C2.32894 10.8106 3.13733 11.2376 3.86232 11.6055C4.58731 11.9733 5.67158 12.5383 6.26825 12.8733C6.87134 13.2018 7.85295 13.7273 8.44963 14.0426C9.05271 14.358 10.1755 14.9623 10.9518 15.3762C12.6584 16.2893 15.013 17.5375 16.1486 18.1221L16.9827 18.5491V28.5213C16.9827 34 16.9762 38.4868 16.9698 38.4868C16.9377 38.4868 14.6024 37.2058 13.3256 36.4832C12.2799 35.8919 8.36622 33.7438 7.23062 33.1329C6.84567 32.9292 6.49922 32.7321 6.46072 32.7059C6.42864 32.6796 5.97954 32.4365 5.46627 32.1606C4.95301 31.8913 4.39483 31.5891 4.21519 31.484C4.04196 31.3854 3.37472 31.0307 2.73955 30.7022L1.58471 30.0979L1.54621 29.1519C1.49488 27.9694 1.48847 10.3704 1.5398 10.3704C1.55904 10.3704 1.79001 10.5018 2.05948 10.6529ZM33.8242 11.7894C33.8434 12.5449 33.8498 13.2149 33.8306 13.274C33.7985 13.4448 33.2981 13.7536 31.6107 14.6404C30.7638 15.0872 29.9618 15.5207 29.8271 15.6061C29.6924 15.6915 28.9995 16.0725 28.2873 16.4404C27.5752 16.8149 26.5615 17.3535 26.0289 17.6426C25.5029 17.9316 24.4442 18.5032 23.6872 18.9105C22.9301 19.3177 22.1474 19.7447 21.9549 19.863C21.7624 19.9812 21.493 20.1126 21.3647 20.1586L21.1209 20.2374V22.5892V24.941L21.91 24.5337C24.4122 23.2264 27.7356 21.4659 28.3707 21.1111C29.4486 20.5133 33.7536 18.3192 33.8498 18.3192C33.8691 18.3192 33.8883 19.0813 33.8883 20.0141C33.8883 21.906 33.9076 21.8141 33.4392 21.998C33.3173 22.0506 33.0735 22.1754 32.9003 22.2805C32.7206 22.3856 32.3229 22.5892 32.0021 22.7338C31.4567 22.99 30.8729 23.2921 30.5778 23.4761C30.5072 23.5221 29.7886 23.9096 28.9738 24.3301C28.1654 24.7571 27.171 25.2892 26.7668 25.5125C25.9712 25.9527 24.6624 26.649 22.4746 27.7921L21.0952 28.5147L21.108 29.5066C21.1144 30.0585 21.1401 31.9438 21.1593 33.6978L21.2043 36.8839L20.4087 37.3372C19.2218 38.0072 18.9266 38.1518 18.7021 38.1977L18.4904 38.2372L18.4775 35.5898C18.4647 34.1314 18.4583 29.6906 18.4583 25.7293V18.5229L19.966 17.7017C20.7936 17.255 22.0255 16.5981 22.6927 16.2499C23.3664 15.8952 24.1619 15.4682 24.4635 15.2908C24.7715 15.1134 25.0409 14.9689 25.0666 14.9689C25.0922 14.9689 25.2783 14.8704 25.4772 14.7456C25.6761 14.6273 26.7347 14.0624 27.8254 13.4908C28.9225 12.9193 30.0324 12.3281 30.2955 12.177C30.5585 12.0259 31.2963 11.6317 31.9315 11.3098C32.5667 10.9814 33.2147 10.6398 33.3751 10.5478C33.5355 10.4493 33.6958 10.3836 33.7279 10.3901C33.7664 10.4033 33.8049 10.9617 33.8242 11.7894Z" fill="#0A1B2D"/>
<path d="M4.18301 16.6972C4.18301 17.6497 4.16377 18.7402 4.14452 19.1212L4.09961 19.8176L4.8246 20.1855C5.21596 20.3891 5.9217 20.7701 6.38364 21.0263C8.08383 21.9657 13.4154 24.7577 13.5116 24.7577C13.5309 24.7577 13.6912 24.8299 13.8645 24.9087L14.1724 25.0664L14.2109 22.8591C14.2238 21.6438 14.2623 20.5993 14.2879 20.5402C14.32 20.4482 14.2366 20.3825 13.826 20.1855C13.5501 20.0541 12.8508 19.6796 12.2669 19.3512C11.6831 19.0227 10.8298 18.5563 10.3679 18.3132C9.90592 18.0702 9.27075 17.722 8.95638 17.5446C8.30838 17.1767 7.5449 16.7629 5.69073 15.7775C4.98499 15.4031 4.38191 15.068 4.34983 15.0352C4.31133 14.9958 4.26 14.9695 4.23434 14.9695C4.20868 14.9695 4.18301 15.7512 4.18301 16.6972Z" fill="#0A1B2D"/>
<path d="M4.14427 23.5829C4.16351 23.8063 4.18276 24.9559 4.18276 26.1318L4.18918 28.2733L4.60621 28.4639C4.83076 28.569 5.58782 28.9631 6.28715 29.3441C11.5032 32.1755 14.1722 33.5879 14.1978 33.5419C14.2043 33.5353 14.2107 32.4185 14.2171 31.0653L14.2235 28.6018L13.3895 28.1682C12.4399 27.669 9.88642 26.2894 8.83423 25.6982C8.44928 25.4814 7.39067 24.9099 6.49245 24.4303C5.59424 23.9508 4.70886 23.4778 4.52922 23.3727C4.34957 23.2676 4.17635 23.1822 4.15068 23.1822C4.12502 23.1822 4.1186 23.3661 4.14427 23.5829Z" fill="#0A1B2D"/>
<path d="M72.6699 12.2414C72.6699 12.2834 72.6419 15.8261 72.5999 20.1249C72.53 26.4821 72.5439 27.9384 72.6979 27.9804C72.7958 28.0224 73.4674 28.0644 74.195 28.0924L75.5102 28.1484L75.3843 26.7482C75.3143 25.964 75.2723 22.4214 75.2863 18.8507C75.3143 15.294 75.3143 12.3815 75.2863 12.3675C75.1324 12.3115 72.6699 12.1854 72.6699 12.2414Z" fill="#0A1B2D"/>
<path d="M110.602 20.2789L110.658 28.3164L110.993 28.1904C111.175 28.1204 111.735 28.0504 112.225 28.0364L113.12 28.0083L113.106 22.1833C113.078 16.9463 113.204 13.7817 113.47 12.8435C113.582 12.4514 113.512 12.4234 111.861 12.3254L110.56 12.2414L110.602 20.2789Z" fill="#0A1B2D"/>
<path d="M68.9904 12.5229C68.1649 12.6769 67.7031 13.223 67.7031 14.0491C67.7031 14.8613 67.997 15.2534 68.7665 15.4774C69.4241 15.6874 69.8858 15.5614 70.4875 15.0433C71.8447 13.8531 70.8373 12.1728 68.9904 12.5229Z" fill="#0A1B2D"/>
<path d="M115.806 12.5237C115.387 12.6917 114.925 13.4619 114.925 13.98C114.925 14.26 115.079 14.5261 115.429 14.8481C115.834 15.2402 116.03 15.3242 116.562 15.3242C117.751 15.3242 118.563 14.022 117.919 13.1118C117.485 12.4817 116.548 12.2296 115.806 12.5237Z" fill="#0A1B2D"/>
<path d="M84.1427 15.1793V17.7838L83.1912 17.3217C82.4077 16.9297 82.0859 16.8457 81.3303 16.8457C79.4274 16.8457 77.4546 18.0499 76.797 19.6182C76.2513 20.9204 76.2933 23.847 76.8669 25.0512C77.2447 25.8213 78.5879 27.2916 79.3015 27.7117C79.7912 27.9918 80.085 28.0618 80.9105 28.0618C82.0439 28.0618 82.6875 27.8097 83.569 27.0116C83.8628 26.7455 84.1427 26.5635 84.1986 26.6195C84.2406 26.6615 84.2826 27.0536 84.2826 27.4737C84.2826 28.1038 84.3245 28.2158 84.5064 28.1458C84.6324 28.1038 85.22 28.0618 85.8217 28.0618H86.927V20.3183L86.941 12.5889L85.5418 12.5749H84.1427V15.1793ZM82.5756 19.6462C83.2052 19.9682 83.7929 20.5704 83.9887 21.1025C84.2546 21.7886 84.1846 23.5249 83.8768 24.127C83.555 24.7571 82.7435 25.4993 82.2398 25.6253C81.7221 25.7513 80.8546 25.4573 80.2809 24.9532C78.8258 23.6649 78.6019 21.2705 79.8332 20.1223C80.6587 19.3521 81.6661 19.1701 82.5756 19.6462Z" fill="#0A1B2D"/>
<path d="M45.3577 13.3177L44.4062 13.3737V20.7111V28.0625H47.5964C51.1363 28.0625 52.2277 27.9365 53.2351 27.4184C55.8096 26.1161 56.5232 23.1896 54.6902 21.4953C54.3264 21.1732 53.8647 20.8371 53.6269 20.7531C53.1092 20.5711 53.1092 20.4871 53.7108 20.165C54.6622 19.6469 55.2639 18.2326 55.152 16.8044C55.04 15.3901 53.7528 13.9758 52.1717 13.4998C51.598 13.3317 47.0647 13.2057 45.3577 13.3177ZM51.5141 16.3843C51.682 16.4963 51.9338 16.8044 52.0598 17.0564C52.3676 17.7146 52.2137 18.3727 51.626 18.9468C51.2063 19.3529 51.0104 19.4229 50.0449 19.5349C49.4293 19.6189 48.5338 19.6609 48.0581 19.6329L47.1906 19.5909V17.9106C47.1906 16.9864 47.1906 16.1883 47.1906 16.1463C47.2046 16.1042 48.1001 16.1042 49.2054 16.1323C50.6186 16.1743 51.2902 16.2443 51.5141 16.3843ZM51.9618 22.4614C53.375 23.1756 53.0252 24.7579 51.3742 25.1079C50.9964 25.192 49.877 25.262 48.8836 25.262H47.0647V23.7217V22.1814H49.2334C51.1363 22.1814 51.4861 22.2234 51.9618 22.4614Z" fill="#0A1B2D"/>
<path d="M88.6067 20.5333C88.5927 24.524 88.5787 27.8567 88.5647 27.9407C88.5507 28.0387 89.0545 28.0947 89.9919 28.1087L91.4191 28.1367L91.461 26.5264C91.475 25.6442 91.475 24.426 91.461 23.8379L91.447 22.7597L91.9228 22.6617C92.4964 22.5497 97.0997 22.6757 97.5055 22.8017C97.7713 22.8997 97.7853 22.8437 97.7434 21.5835L97.7014 20.2672L96.5541 20.1692C95.9244 20.1272 94.5113 20.0852 93.4199 20.0852H91.4191V18.1248V16.1505L95.029 16.1785L98.6248 16.1925L98.6668 14.7362L98.7088 13.2939H93.6578H88.6207L88.6067 20.5333Z" fill="#0A1B2D"/>
<path d="M123.446 16.7201C121.725 17.0001 119.962 18.4144 119.095 20.1787C118.675 21.0609 118.633 21.2429 118.633 22.4611C118.633 23.6654 118.675 23.8754 119.053 24.6316C119.626 25.7798 120.913 27.124 121.893 27.6001C122.606 27.9502 122.844 27.9922 124.16 27.9922C125.517 27.9922 125.699 27.9642 126.538 27.5581C128.931 26.4099 130.232 24.2395 129.966 21.845C129.756 19.9547 128.441 18.2323 126.482 17.2942C125.279 16.7061 124.481 16.552 123.446 16.7201ZM125.041 19.4086C125.643 19.5906 126.552 20.4168 126.916 21.1309C127.266 21.775 127.196 23.1333 126.79 23.9594C125.951 25.6397 123.782 26.0458 122.271 24.7996C120.452 23.3013 121.067 20.0387 123.278 19.4366C124.146 19.2125 124.355 19.1985 125.041 19.4086Z" fill="#0A1B2D"/>
<path d="M56.7888 20.4188C56.7328 22.9673 56.7468 24.2835 56.8588 24.7736C57.2086 26.2999 58.4119 27.7702 59.5732 28.0783C60.3147 28.2743 61.6999 28.1623 62.3156 27.8542C62.5814 27.7282 63.0431 27.3921 63.337 27.1121L63.8547 26.608V27.3781V28.1483L65.086 28.0923C65.7576 28.0643 66.3172 28.0222 66.3312 28.0082C66.3452 27.9942 66.3732 25.4598 66.3732 22.3932L66.4012 16.7921L65.1559 16.8481C64.4843 16.8761 63.8827 16.9182 63.8267 16.9602C63.7567 16.9882 63.7148 18.6125 63.7148 20.5588C63.7148 24.0035 63.7008 24.1155 63.4069 24.5636C62.9032 25.2917 62.4135 25.5858 61.588 25.6418C61.0143 25.6838 60.7485 25.6278 60.3987 25.4178C59.5452 24.8857 59.4752 24.5916 59.3353 20.6429C59.2794 18.6825 59.1814 17.0302 59.1254 16.9882C59.0695 16.9322 58.5518 16.8621 57.9641 16.8341L56.9007 16.7641L56.7888 20.4188Z" fill="#0A1B2D"/>
<path d="M68.0527 21.7515C68.0527 24.496 68.0107 27.0445 67.9687 27.4366L67.8848 28.1367L69.186 28.0807C69.9136 28.0667 70.5292 28.0107 70.5712 27.9687C70.5992 27.9407 70.6551 25.5182 70.6691 22.5917C70.6831 19.6791 70.7251 17.2287 70.7671 17.1587C70.893 16.9766 70.5012 16.8646 69.9835 16.9486C69.7317 16.9906 69.186 16.9766 68.7802 16.8926L68.0527 16.7666V21.7515Z" fill="#0A1B2D"/>
<path d="M103.242 16.8055C101.717 17.1836 100.906 17.6316 99.7722 18.7239C98.9327 19.55 98.6109 20.2081 98.415 21.5944C98.2191 22.9246 98.3171 23.5408 98.9747 24.927C99.4364 25.8652 100.668 27.1534 101.577 27.6155C102.948 28.3157 104.935 28.3157 106.376 27.6155C108.223 26.7194 109.79 23.8488 109.539 21.8324C109.329 20.0961 107.734 17.9537 106.111 17.2256C105.313 16.8615 103.872 16.6515 103.242 16.8055ZM105.089 19.536C105.915 19.9281 106.754 20.9363 106.922 21.6924C107.23 23.1347 106.614 24.675 105.481 25.2491C104.334 25.8512 103.074 25.6412 101.969 24.675C101.297 24.0869 101.073 23.5128 101.073 22.4065C101.073 21.3423 101.227 20.8663 101.745 20.3202C102.669 19.34 104.026 19.0179 105.089 19.536Z" fill="#0A1B2D"/>
<path d="M116.114 16.8181L114.854 16.8741L114.882 19.2125C114.91 20.5008 114.952 22.9932 115.008 24.7716L115.092 27.9922L116.38 27.9782L117.653 27.9502L117.709 22.9372C117.723 20.1647 117.765 17.6582 117.779 17.3502C117.793 16.7201 117.919 16.7621 116.114 16.8181Z" fill="#0A1B2D"/>
</svg>
