<svg width="204" height="230" viewBox="0 0 204 230" fill="none" xmlns="http://www.w3.org/2000/svg">
<path d="M100.88 0.540085C100.429 0.883743 98.0047 2.17242 95.5238 3.43246C93.0429 4.72115 90.9003 5.83801 90.7311 5.95256C90.5901 6.09575 88.4193 7.24126 85.9384 8.55856C83.4575 9.87589 78.3829 12.5678 74.6615 14.5724C70.9401 16.577 66.2602 19.0685 64.2304 20.0708C62.2287 21.1017 58.3382 23.1637 55.6317 24.6528C52.9253 26.1706 48.7246 28.4043 46.3283 29.6643C35.9535 35.1341 34.1774 36.0791 31.2454 37.7115C29.5539 38.6565 27.3831 39.8879 26.4809 40.4606C25.5506 41.0334 24.6484 41.4916 24.5075 41.4916C24.2819 41.4916 24.1973 53.9775 24.1973 82.9299C24.1973 105.754 24.1692 126.974 24.1128 130.096L24 135.795L25.6633 136.453C27.2703 137.055 39.8723 143.584 48.1608 148.109C50.5007 149.369 53.4609 150.972 54.786 151.688C56.111 152.404 58.3382 153.607 59.7196 154.323C63.8921 156.528 67.8672 158.676 82.9782 166.952C84.9235 168.04 89.9699 170.675 94.227 172.823L101.952 176.746L105.504 174.885C114.497 170.188 128.199 162.828 135.698 158.619C140.631 155.869 147.059 152.404 155.291 148.023C156.842 147.192 158.252 146.419 158.393 146.305C159.323 145.589 177.873 136.11 178.832 135.852L179.537 135.68L179.509 91.6643C179.48 67.4657 179.396 46.3313 179.339 44.699L179.198 41.7493L177.056 40.8043C175.9 40.2888 174.18 39.4297 173.278 38.9142C171.53 37.8833 170.092 37.1101 163.467 33.6163C159.661 31.6117 152.106 27.4306 144.719 23.3068C143.253 22.4763 138.489 19.8703 134.147 17.4934C125.774 12.9401 118.444 8.90222 114.61 6.72577C113.341 6.00984 110.353 4.43478 107.985 3.23201C105.645 2.02924 103.361 0.797836 102.938 0.511459C102.008 -0.175842 101.923 -0.175842 100.88 0.540085ZM103.502 8.07173C104.066 8.44402 109 11.1646 114.413 14.1429C119.854 17.0925 126.31 20.6436 128.791 22.0182C131.272 23.3927 135.585 25.741 138.376 27.2588C146.129 31.3826 149.879 33.4731 153.882 35.8787C155.912 37.1101 158.872 38.7424 160.507 39.5443C162.142 40.3461 163.636 41.1193 163.834 41.2911C164.285 41.6634 163.636 42.093 158.534 44.8422C156.588 45.8731 154.136 47.2477 153.092 47.8491C152.049 48.4791 148.92 50.1687 146.185 51.6292C143.451 53.0897 138.602 55.6957 135.416 57.3854C132.23 59.075 127.494 61.5951 124.844 62.9697C122.222 64.3443 117.514 66.8071 114.413 68.4394C111.311 70.0717 107.28 72.1623 105.476 73.1073L102.205 74.7969L98.7377 73.1646C96.8206 72.2482 94.7344 71.2172 94.1142 70.8449C93.494 70.5013 88.4193 67.8667 82.8373 65.0029C71.7577 59.3613 58.451 52.2879 51.5439 48.4218C49.9933 47.5341 46.6102 45.7586 44.0447 44.4699C41.451 43.1812 39.252 41.9498 39.1393 41.778C38.8291 41.2911 39.6467 40.7184 43.65 38.5419C45.5107 37.511 49.373 35.4205 52.2487 33.8454C59.2403 30.008 62.8208 28.0893 68.0363 25.3974C70.4327 24.1373 73.9849 22.2473 75.9302 21.159C77.8754 20.0994 82.3016 17.7225 85.7975 15.8611C89.2933 13.9997 93.6067 11.68 95.3828 10.735C97.159 9.78998 99.2734 8.67311 100.035 8.24356C101.839 7.29852 102.205 7.26988 103.502 8.07173ZM33.0497 46.4459C34.2338 47.1332 37.786 48.9946 40.9718 50.5983C44.1575 52.202 48.922 54.6648 51.5439 56.1253C54.1939 57.5572 58.5073 59.8482 61.1292 61.2228C63.7793 62.5974 68.7129 65.232 72.1242 67.0362C79.6234 71.0168 89.9699 76.4579 94.96 79.0066L98.625 80.868V124.34C98.625 148.223 98.5968 167.783 98.5686 167.783C98.4276 167.783 88.1656 162.198 82.5554 159.048C77.96 156.471 60.7627 147.106 55.7727 144.443C54.0812 143.555 52.5588 142.696 52.3896 142.582C52.2487 142.467 50.2752 141.408 48.0198 140.205C45.7644 139.031 43.3117 137.713 42.5223 137.255C41.7611 136.826 38.8291 135.279 36.0381 133.847L30.9635 131.213L30.7943 127.089C30.5688 121.934 30.5406 45.2144 30.7661 45.2144C30.8507 45.2144 31.8656 45.7872 33.0497 46.4459ZM172.63 51.4001C172.714 54.6934 172.742 57.6145 172.658 57.8722C172.517 58.6168 170.318 59.9627 162.903 63.8288C159.182 65.7761 155.658 67.6662 155.066 68.0385C154.474 68.4108 151.429 70.0717 148.3 71.6754C145.17 73.3078 140.716 75.656 138.376 76.9161C136.064 78.1761 131.413 80.6676 128.086 82.4431C124.759 84.2186 121.32 86.08 120.474 86.5955C119.628 87.111 118.444 87.6837 117.88 87.8842L116.809 88.2279V98.48V108.732L120.277 106.957C131.272 101.258 145.875 93.583 148.666 92.0366C153.403 89.4306 172.32 79.8657 172.742 79.8657C172.827 79.8657 172.912 83.1877 172.912 87.2542C172.912 95.5018 172.996 95.1008 170.938 95.9027C170.402 96.1318 169.331 96.6759 168.57 97.1341C167.781 97.5923 166.033 98.48 164.623 99.1101C162.227 100.227 159.661 101.544 158.364 102.346C158.054 102.547 154.897 104.236 151.316 106.069C147.764 107.93 143.394 110.25 141.618 111.224C138.122 113.142 132.371 116.178 122.758 121.161L116.696 124.311L116.753 128.635C116.781 131.041 116.894 139.26 116.978 146.906L117.175 160.795L113.68 162.771C108.464 165.692 107.167 166.322 106.18 166.523L105.25 166.694L105.194 155.153C105.137 148.796 105.109 129.437 105.109 112.169V80.7535L111.734 77.1738C115.371 75.2265 120.784 72.3627 123.716 70.8449C126.676 69.2985 130.172 67.4371 131.497 66.6639C132.85 65.8907 134.034 65.2606 134.147 65.2606C134.26 65.2606 135.078 64.8311 135.952 64.287C136.825 63.7715 141.477 61.3087 146.27 58.8172C151.091 56.3258 155.968 53.7484 157.124 53.0898C158.28 52.4311 161.522 50.7128 164.313 49.3096C167.104 47.8777 169.951 46.3886 170.656 45.9877C171.361 45.5581 172.066 45.2717 172.207 45.3004C172.376 45.3576 172.545 47.7918 172.63 51.4001Z" fill="black"/>
<path d="M42.3811 72.7933C42.3811 76.9457 42.2966 81.6995 42.212 83.3605L42.0146 86.3961L45.2004 87.9997C46.9201 88.8875 50.0213 90.5485 52.0511 91.6653C59.522 95.7605 82.9498 107.931 83.3727 107.931C83.4573 107.931 84.1621 108.246 84.9233 108.59L86.2765 109.277L86.4457 99.6552C86.5021 94.3573 86.6712 89.8039 86.784 89.5462C86.9249 89.1452 86.5584 88.8589 84.7541 87.9997C83.5419 87.427 80.4689 85.7947 77.9034 84.3628C75.3379 82.9309 71.5883 80.8977 69.5585 79.8381C67.5287 78.7785 64.7376 77.2607 63.3562 76.4875C60.5088 74.8838 57.1539 73.0797 49.0063 68.784C45.9052 67.1517 43.2551 65.6912 43.1141 65.548C42.945 65.3762 42.7195 65.2616 42.6067 65.2616C42.4939 65.2616 42.3811 68.6695 42.3811 72.7933Z" fill="black"/>
<path d="M42.2124 102.804C42.297 103.777 42.3816 108.789 42.3816 113.915L42.4098 123.251L44.2423 124.081C45.229 124.539 48.5557 126.258 51.6286 127.919C74.549 140.261 86.2769 146.418 86.3897 146.218C86.4179 146.189 86.4461 141.321 86.4743 135.422L86.5025 124.683L82.8375 122.793C78.665 120.616 67.4445 114.602 62.821 112.025C61.1294 111.08 56.4777 108.588 52.5308 106.498C48.5839 104.407 44.6933 102.345 43.904 101.887C43.1146 101.429 42.3534 101.057 42.2406 101.057C42.1278 101.057 42.0996 101.859 42.2124 102.804Z" fill="black"/>
<path d="M67.3615 191.035C67.3615 191.137 67.2948 199.724 67.1948 210.145C67.028 225.555 67.0614 229.085 67.4282 229.186C67.6616 229.288 69.2623 229.39 70.9964 229.458L74.131 229.594L73.8309 226.2C73.6642 224.299 73.5641 215.711 73.5975 207.056C73.6642 198.435 73.6642 191.375 73.5975 191.341C73.2306 191.205 67.3615 190.899 67.3615 191.035Z" fill="black"/>
<path d="M157.766 210.517L157.899 230L158.7 229.695C159.133 229.525 160.467 229.355 161.634 229.321L163.769 229.253L163.735 215.133C163.669 202.439 163.969 194.768 164.602 192.494C164.869 191.543 164.702 191.475 160.767 191.238L157.666 191.034L157.766 210.517Z" fill="black"/>
<path d="M58.5914 191.713C56.6239 192.086 55.5234 193.41 55.5234 195.413C55.5234 197.381 56.2237 198.332 58.0578 198.875C59.6252 199.384 60.7256 199.078 62.1595 197.822C65.3942 194.937 62.9932 190.864 58.5914 191.713Z" fill="black"/>
<path d="M170.171 191.715C169.171 192.123 168.07 193.99 168.07 195.245C168.07 195.924 168.437 196.569 169.271 197.35C170.238 198.3 170.705 198.504 171.972 198.504C174.806 198.504 176.741 195.347 175.207 193.141C174.173 191.614 171.939 191.003 170.171 191.715Z" fill="black"/>
<path d="M94.7062 198.158V204.471L92.4386 203.351C90.5711 202.401 89.8041 202.197 88.0034 202.197C83.4681 202.197 78.7662 205.116 77.1988 208.918C75.8983 212.074 75.9983 219.168 77.3656 222.087C78.266 223.954 81.4673 227.518 83.168 228.536C84.3352 229.215 85.0355 229.385 87.0029 229.385C89.7041 229.385 91.238 228.774 93.3389 226.839C94.0392 226.194 94.7062 225.753 94.8396 225.889C94.9396 225.991 95.0396 226.941 95.0396 227.959C95.0396 229.487 95.1397 229.758 95.5732 229.588C95.8733 229.487 97.2739 229.385 98.7078 229.385H101.342V210.615L101.376 191.879L98.0409 191.845H94.7062V198.158ZM90.9713 208.985C92.4719 209.766 93.8725 211.226 94.3393 212.515C94.9729 214.179 94.8062 218.388 94.0726 219.847C93.3056 221.374 91.3714 223.173 90.1709 223.479C88.9371 223.784 86.8696 223.072 85.5023 221.85C82.0342 218.727 81.5006 212.923 84.4352 210.14C86.4027 208.273 88.8037 207.831 90.9713 208.985Z" fill="black"/>
<path d="M2.26761 193.649L0 193.785V211.571V229.391H7.60318C16.04 229.391 18.6411 229.085 21.0421 227.829C27.178 224.673 28.8787 217.579 24.5102 213.472C23.6432 212.691 22.5428 211.876 21.9759 211.673C20.742 211.231 20.742 211.028 22.1759 210.247C24.4436 208.991 25.8775 205.563 25.6107 202.101C25.3439 198.673 22.276 195.245 18.5077 194.091C17.1405 193.683 6.33598 193.378 2.26761 193.649ZM16.9404 201.083C17.3406 201.354 17.9408 202.101 18.241 202.712C18.9746 204.307 18.6078 205.902 17.2072 207.294C16.2068 208.278 15.7399 208.448 13.439 208.72C11.9717 208.923 9.83745 209.025 8.70364 208.957L6.63611 208.855V204.782C6.63611 202.542 6.63611 200.607 6.63611 200.506C6.66946 200.404 8.80368 200.404 11.4381 200.472C14.8062 200.574 16.4069 200.743 16.9404 201.083ZM18.0075 215.814C21.3756 217.545 20.5419 221.38 16.6069 222.229C15.7066 222.432 13.0388 222.602 10.6711 222.602H6.33598V218.868V215.135H11.5048C16.04 215.135 16.8737 215.237 18.0075 215.814Z" fill="black"/>
<path d="M105.344 211.128C105.311 220.801 105.277 228.88 105.244 229.083C105.21 229.321 106.411 229.457 108.645 229.491L112.047 229.559L112.147 225.655C112.18 223.517 112.18 220.564 112.147 219.138L112.113 216.525L113.247 216.287C114.614 216.016 125.586 216.321 126.553 216.627C127.186 216.864 127.22 216.728 127.12 213.674L127.02 210.483L124.285 210.245C122.785 210.144 119.416 210.042 116.815 210.042H112.047V205.29V200.504L120.65 200.572L129.221 200.606L129.321 197.076L129.421 193.58H117.382H105.377L105.344 211.128Z" fill="black"/>
<path d="M188.379 201.895C184.277 202.574 180.075 206.002 178.008 210.279C177.007 212.417 176.907 212.859 176.907 215.812C176.907 218.731 177.007 219.24 177.908 221.073C179.275 223.856 182.343 227.114 184.677 228.268C186.378 229.117 186.945 229.219 190.079 229.219C193.314 229.219 193.748 229.151 195.748 228.167C201.451 225.383 204.552 220.122 203.919 214.318C203.418 209.736 200.284 205.561 195.615 203.287C192.747 201.861 190.846 201.488 188.379 201.895ZM192.18 208.412C193.614 208.853 195.782 210.856 196.649 212.587C197.482 214.148 197.316 217.441 196.349 219.443C194.348 223.516 189.179 224.501 185.578 221.48C181.242 217.848 182.71 209.939 187.979 208.48C190.046 207.937 190.546 207.903 192.18 208.412Z" fill="black"/>
<path d="M29.5127 210.857C29.3793 217.035 29.4127 220.225 29.6795 221.413C30.5131 225.113 33.381 228.677 36.1488 229.424C37.9162 229.899 41.2176 229.627 42.6849 228.881C43.3185 228.575 44.419 227.761 45.1193 227.082L46.3531 225.86V227.727V229.593L49.2877 229.458C50.8883 229.39 52.2222 229.288 52.2556 229.254C52.2889 229.22 52.3556 223.077 52.3556 215.643L52.4223 202.066L49.4544 202.202C47.8537 202.27 46.4198 202.372 46.2864 202.473C46.1197 202.541 46.0196 206.479 46.0196 211.197C46.0196 219.547 45.9863 219.818 45.286 220.904C44.0855 222.669 42.9183 223.382 40.9508 223.518C39.5836 223.62 38.95 223.484 38.1163 222.975C36.0821 221.685 35.9154 220.972 35.5819 211.4C35.4485 206.648 35.2151 202.643 35.0817 202.541C34.9483 202.406 33.7145 202.236 32.3139 202.168L29.7795 201.998L29.5127 210.857Z" fill="black"/>
<path d="M56.3572 214.081C56.3572 220.734 56.2572 226.911 56.1571 227.861L55.957 229.559L59.0583 229.423C60.7924 229.389 62.2597 229.253 62.3597 229.151C62.4264 229.083 62.5598 223.211 62.5931 216.117C62.6265 209.057 62.7265 203.117 62.8266 202.948C63.1267 202.507 62.193 202.235 60.9591 202.439C60.3589 202.54 59.0583 202.507 58.0913 202.303L56.3572 201.997V214.081Z" fill="black"/>
<path d="M140.225 202.098C136.59 203.014 134.656 204.1 131.955 206.748C129.954 208.751 129.187 210.346 128.72 213.706C128.253 216.931 128.487 218.424 130.054 221.784C131.154 224.059 134.089 227.181 136.256 228.301C139.524 229.998 144.26 229.998 147.695 228.301C152.096 226.129 155.831 219.171 155.231 214.283C154.731 210.074 150.929 204.881 147.061 203.116C145.16 202.234 141.725 201.724 140.225 202.098ZM144.627 208.717C146.594 209.667 148.595 212.111 148.995 213.944C149.729 217.44 148.261 221.173 145.56 222.565C142.826 224.025 139.825 223.516 137.19 221.173C135.589 219.748 135.056 218.356 135.056 215.675C135.056 213.095 135.423 211.941 136.657 210.617C138.858 208.241 142.092 207.461 144.627 208.717Z" fill="black"/>
<path d="M170.905 202.133L167.903 202.268L167.97 207.937C168.037 211.06 168.137 217.101 168.27 221.412L168.47 229.219L171.538 229.185L174.573 229.117L174.706 216.966C174.74 210.245 174.84 204.169 174.873 203.423C174.906 201.895 175.206 201.997 170.905 202.133Z" fill="black"/>
</svg>
