<svg width="26" height="26" viewBox="0 0 26 26" fill="none" xmlns="http://www.w3.org/2000/svg">
<path d="M12.7578 22.3261C12.4377 22.3257 12.1252 22.229 11.8608 22.0485C7.94427 19.3898 6.24839 17.5669 5.31298 16.4271C3.31958 13.9977 2.36524 11.5034 2.39215 8.80237C2.42355 5.70712 4.90683 3.18945 7.92783 3.18945C10.1246 3.18945 11.646 4.42686 12.5321 5.45744C12.5602 5.48976 12.5948 5.51568 12.6338 5.53344C12.6727 5.5512 12.715 5.56039 12.7578 5.56039C12.8006 5.56039 12.8429 5.5512 12.8819 5.53344C12.9208 5.51568 12.9555 5.48976 12.9836 5.45744C13.8697 4.42586 15.3911 3.18945 17.5878 3.18945C20.6088 3.18945 23.0921 5.70712 23.1235 8.80287C23.1504 11.5044 22.1951 13.9987 20.2027 16.4276C19.2673 17.5673 17.5714 19.3903 13.6549 22.049C13.3904 22.2293 13.0779 22.3258 12.7578 22.3261Z" fill="white"/>
</svg>
